<svg width="28" height="35" viewBox="0 0 28 35" fill="none" xmlns="http://www.w3.org/2000/svg">
<path d="M6.92851 33.7763C6.25015 33.3231 5.64779 32.7681 5.1444 32.127C4.59511 31.463 4.08597 30.7645 3.61843 30.0417C2.51985 28.4354 1.66078 26.6786 1.06559 24.827C0.348505 22.6729 0 20.6106 0 18.5927C0 16.341 0.487621 14.3762 1.43705 12.7269C2.13979 11.4361 3.18674 10.3562 4.44882 9.59752C5.66787 8.8374 7.08771 8.42149 8.52189 8.39281C9.02385 8.39281 9.56884 8.46452 10.1425 8.60793C10.5584 8.72267 11.0604 8.90911 11.6771 9.13858C12.4659 9.43976 12.8961 9.6262 13.0395 9.66923C13.4985 9.84133 13.8857 9.91304 14.1869 9.91304C14.4164 9.91304 14.7462 9.84133 15.1119 9.72659C15.3199 9.65488 15.7143 9.52581 16.2736 9.282C16.8272 9.08121 17.2661 8.90911 17.6146 8.78004C18.1452 8.62228 18.6587 8.47886 19.1205 8.40715C19.6798 8.3211 20.2348 8.29242 20.7669 8.33544C21.7852 8.40715 22.7174 8.62228 23.5492 8.9378C25.0121 9.52581 26.1924 10.4437 27.073 11.7488C26.7001 11.9783 26.3559 12.245 26.0332 12.5376C25.3348 13.1543 24.7424 13.8857 24.2692 14.696C23.6525 15.8003 23.3369 17.0481 23.3455 18.3101C23.3671 19.8634 23.7615 21.2287 24.5503 22.4119C25.1053 23.2724 25.8468 24.0096 26.7503 24.6148C27.1949 24.916 27.585 25.1239 27.955 25.2602C27.7829 25.798 27.5936 26.3215 27.3742 26.8378C26.8765 27.9951 26.2842 29.1038 25.5814 30.1507C24.9619 31.0542 24.4742 31.7283 24.1042 32.1729C23.5277 32.8613 22.9712 33.3776 22.4119 33.7462C21.7952 34.1549 21.0709 34.3715 20.3295 34.3715C19.8275 34.393 19.3255 34.3285 18.8465 34.1894C18.4306 34.0531 18.0204 33.8997 17.6189 33.7261C17.1987 33.5339 16.7641 33.3704 16.3209 33.2385C15.776 33.0951 15.2166 33.0262 14.6516 33.0277C14.0779 33.0277 13.5186 33.0994 12.9879 33.2356C12.5433 33.3618 12.1131 33.5167 11.6871 33.7017C11.0848 33.9527 10.6904 34.1177 10.4609 34.1894C9.99622 34.327 9.52007 34.4102 9.04106 34.4403C8.29528 34.4403 7.60114 34.2252 6.90987 33.795L6.92851 33.7763ZM16.7584 7.3014C15.7831 7.78902 14.8566 7.99554 13.9287 7.9267C13.7853 7.00022 13.9287 6.04793 14.316 5.00528C14.6602 4.11609 15.1191 3.31295 15.7501 2.59586C16.4099 1.85009 17.1987 1.23339 18.0879 0.788798C19.0344 0.301177 19.9379 0.0430253 20.7984 0C20.9132 0.975241 20.7984 1.93614 20.4399 2.96875C20.1129 3.88662 19.6253 4.73279 19.0057 5.4929C18.3819 6.23867 17.6074 6.85537 16.7311 7.29996L16.7584 7.3014Z" fill="#92B6FF"/>
</svg>
