<svg width="29" height="29" viewBox="0 0 29 29" fill="none" xmlns="http://www.w3.org/2000/svg">
<path d="M28.7987 14.3051C28.7987 6.58549 22.5409 0.327545 14.8213 0.327545C7.10169 0.327545 0.84375 6.58549 0.84375 14.3051C0.84375 21.2817 5.95513 27.0642 12.6373 28.1128V18.3455H9.08831V14.3051H12.6373V11.2256C12.6373 7.72253 14.724 5.78752 17.9168 5.78752C19.446 5.78752 21.0456 6.06051 21.0456 6.06051V9.50029H19.2832C17.5468 9.50029 17.0052 10.5777 17.0052 11.6831V14.3051H20.8818L20.2621 18.3455H17.0052V28.1128C23.6875 27.0642 28.7987 21.2817 28.7987 14.3051V14.3051Z" fill="#92B6FF"/>
</svg>
