<svg width="183" height="55" viewBox="0 0 183 55" fill="none" xmlns="http://www.w3.org/2000/svg">
<path d="M45.9314 42.3726C49.3469 42.3726 52.0792 40.6028 53.1038 38.212L50.2473 36.8147C49.4089 38.243 47.9807 39.2676 45.9624 39.2676C43.3232 39.2676 41.2429 37.4357 41.0256 34.6102H53.5075C53.6317 34.1134 53.6627 33.4924 53.6627 32.9646C53.6627 28.6176 50.713 24.8296 45.652 24.8296C40.9324 24.8296 37.3617 28.5245 37.3617 33.5545C37.3617 38.5225 40.9014 42.3726 45.9314 42.3726ZM45.652 27.7793C48.0117 27.7793 49.8126 29.4249 49.9368 31.8157H41.0877C41.5224 29.2697 43.3853 27.7793 45.652 27.7793ZM63.1416 42.3726C65.4393 42.3726 67.5196 41.4722 68.7616 39.8265V42H72.0839V18.4955H68.6063V27.1583C67.3333 25.699 65.4393 24.8296 63.1105 24.8296C58.3289 24.8296 54.6961 28.6176 54.6961 33.5856C54.6961 38.5535 58.2979 42.3726 63.1416 42.3726ZM63.4831 39.1124C60.5024 39.1124 58.36 36.7837 58.36 33.5856C58.36 30.4185 60.5334 28.0898 63.4831 28.0898C66.4018 28.0898 68.6063 30.4185 68.6063 33.5856C68.6063 36.7837 66.4018 39.1124 63.4831 39.1124ZM80.4648 42.3726C82.5762 42.3726 84.315 41.5032 85.2464 39.9197V42H88.5687V25.2022H85.0912V35.107C85.0912 37.5599 83.5387 39.1124 81.3342 39.1124C79.1607 39.1124 77.6393 37.591 77.6393 35.2622V25.2022H74.1307V35.5727C74.1307 39.6092 76.6457 42.3726 80.4648 42.3726ZM103.651 42.3726C108.463 42.3726 112.065 38.5535 112.065 33.5856C112.065 28.6176 108.432 24.8296 103.651 24.8296C101.353 24.8296 99.4591 25.6679 98.1861 27.1273V18.4955H94.6775V42H98.0308V39.8576C99.2728 41.4722 101.322 42.3726 103.651 42.3726ZM103.309 39.1124C100.36 39.1124 98.1861 36.7837 98.1861 33.5856C98.1861 30.4185 100.36 28.0898 103.309 28.0898C106.259 28.0898 108.432 30.4185 108.432 33.5856C108.432 36.7837 106.259 39.1124 103.309 39.1124ZM119.763 42.3726C121.874 42.3726 123.613 41.5032 124.545 39.9197V42H127.867V25.2022H124.389V35.107C124.389 37.5599 122.837 39.1124 120.632 39.1124C118.459 39.1124 116.938 37.591 116.938 35.2622V25.2022H113.429V35.5727C113.429 39.6092 115.944 42.3726 119.763 42.3726ZM130.256 42H133.765V32.3125C133.765 29.6733 135.317 28.1829 137.646 28.1829H139.105V24.9848H138.08C136.031 24.9848 134.479 25.6679 133.609 27.3446V25.2022H130.256V42ZM139.798 42H143.306V32.0952C143.306 29.6112 144.859 28.0898 147.032 28.0898C149.237 28.0898 150.758 29.6112 150.758 32.0952V42H154.236V31.1327C154.236 27.4378 151.565 24.8296 147.902 24.8296C145.821 24.8296 144.113 25.6679 143.151 27.2515V25.2022H139.798V42ZM164.17 42.3726C167.585 42.3726 170.317 40.6028 171.342 38.212L168.485 36.8147C167.647 38.243 166.219 39.2676 164.201 39.2676C161.561 39.2676 159.481 37.4357 159.264 34.6102H171.746C171.87 34.1134 171.901 33.4924 171.901 32.9646C171.901 28.6176 168.951 24.8296 163.89 24.8296C159.171 24.8296 155.6 28.5245 155.6 33.5545C155.6 38.5225 159.14 42.3726 164.17 42.3726ZM163.89 27.7793C166.25 27.7793 168.051 29.4249 168.175 31.8157H159.326C159.761 29.2697 161.623 27.7793 163.89 27.7793ZM173.617 42H177.126V32.3125C177.126 29.6733 178.678 28.1829 181.007 28.1829H182.466V24.9848H181.442C179.393 24.9848 177.84 25.6679 176.971 27.3446V25.2022H173.617V42Z" fill="black"/>
<path d="M13.854 17.3395C11.2422 17.6047 8.83048 18.4503 6.78408 19.8212C4.78267 21.1572 3.21658 22.8183 2.00073 24.8748C1.09009 26.4258 0.424626 28.3122 0.139426 30.1735C-0.0106795 31.1141 -0.0457038 33.0355 0.0643732 33.9711C0.104401 34.3414 0.154436 34.6866 0.17445 34.7316C0.204471 34.8117 1.21518 34.8167 15.23 34.8167H30.2505L30.3105 34.3914C30.5407 32.7452 30.4556 30.8289 30.0854 29.1728C29.4549 26.3508 28.0639 23.819 26.0325 21.7876C23.5508 19.3109 20.3486 17.7648 16.9011 17.3795C16.2957 17.3145 14.3694 17.2845 13.854 17.3395ZM16.1056 22.283C17.9719 22.388 20.1084 23.2386 21.6845 24.5045C22.8303 25.4201 23.7059 26.5009 24.3864 27.8368C24.6966 28.4423 25.0318 29.3129 25.1319 29.7732L25.1619 29.9133H15.205H5.248L5.27801 29.7732C5.43811 29.0327 6.06858 27.6217 6.59896 26.8361C8.135 24.5395 10.4867 22.9684 13.1785 22.433C13.824 22.308 14.9248 22.2079 15.3551 22.2379C15.4801 22.2479 15.8154 22.2679 16.1056 22.283Z" fill="black"/>
<path d="M22.3852 39.5748C20.3137 41.6713 17.3566 42.7821 14.3946 42.5719C12.8085 42.4568 11.4025 42.0266 10.0115 41.236C9.20596 40.7706 8.77567 40.4404 8.01514 39.6999L7.49978 39.1996L7.3897 39.2996C7.32465 39.3597 6.51909 40.0652 5.59842 40.8707C4.67779 41.6763 3.89225 42.3618 3.86224 42.3918C3.73714 42.5069 4.963 43.7027 6.02875 44.5133C6.63916 44.9736 7.52979 45.529 8.24529 45.8942C10.642 47.1151 13.1938 47.6505 15.9207 47.5154C19.6282 47.3304 23.1957 45.7391 25.8776 43.0673C26.1978 42.7421 26.463 42.4618 26.463 42.4368C26.463 42.4018 22.8905 39.2146 22.8155 39.1795C22.8005 39.1746 22.6053 39.3497 22.3852 39.5748Z" fill="black"/>
</svg>
