<svg width="29" height="28" viewBox="0 0 29 28" fill="none" xmlns="http://www.w3.org/2000/svg">
<path d="M14.7441 0.588776C7.02153 0.588776 0.766602 6.8472 0.766602 14.5663C0.766602 20.7432 4.77115 25.9812 10.3237 27.8274C11.0226 27.959 11.2788 27.5269 11.2788 27.1553C11.2788 26.8234 11.2672 25.944 11.2614 24.7792C7.3733 25.6225 6.55329 22.9038 6.55329 22.9038C5.91731 21.2906 4.99829 20.8596 4.99829 20.8596C3.73216 19.993 5.09613 20.0105 5.09613 20.0105C6.49971 20.1083 7.23702 21.4502 7.23702 21.4502C8.48334 23.5876 10.5089 22.9702 11.308 22.6126C11.4338 21.7088 11.7937 21.0926 12.1932 20.7432C9.08904 20.3937 5.82646 19.1917 5.82646 13.8359C5.82646 12.3101 6.36808 11.0637 7.26497 10.0853C7.10773 9.73239 6.63599 8.31134 7.38728 6.38594C7.38728 6.38594 8.55789 6.01088 11.2311 7.81864C12.3493 7.50764 13.5374 7.35388 14.7255 7.3469C15.9135 7.35388 17.1016 7.50764 18.2198 7.81864C20.8756 6.01088 22.0462 6.38594 22.0462 6.38594C22.7975 8.31134 22.3257 9.73239 22.186 10.0853C23.077 11.0637 23.6186 12.3101 23.6186 13.8359C23.6186 19.2056 20.3514 20.3879 17.2414 20.7315C17.7306 21.1508 18.1849 22.0081 18.1849 23.3173C18.1849 25.188 18.1674 26.6906 18.1674 27.1449C18.1674 27.5118 18.412 27.9486 19.1284 27.8088C24.7205 25.9754 28.7216 20.7338 28.7216 14.5663C28.7216 6.8472 22.4632 0.588776 14.7441 0.588776" fill="#92B6FF"/>
</svg>
