<svg width="29" height="30" viewBox="0 0 29 30" fill="none" xmlns="http://www.w3.org/2000/svg">
<path d="M15.1846 13.1818V18.0727H23.274C22.9471 20.1705 20.8303 24.2224 15.1846 24.2224C10.3175 24.2224 6.34291 20.1943 6.34291 15.2202C6.34291 10.246 10.3187 6.21801 15.1846 6.21801C17.954 6.21801 19.8093 7.3935 20.8719 8.41566L24.7395 4.68595C22.2554 2.36706 19.0344 0.957428 15.1846 0.957428C7.29851 0.957428 0.921875 7.33407 0.921875 15.2202C0.921875 23.1063 7.29851 29.4829 15.1846 29.4829C23.4166 29.4829 28.8769 23.6958 28.8769 15.5458C28.8769 14.6093 28.7758 13.8937 28.6522 13.1818H15.1846Z" fill="#92B6FF"/>
</svg>
