<svg width="224" height="50" viewBox="0 0 224 50" fill="#BFC5C5" xmlns="http://www.w3.org/2000/svg">
<path d="M22.918 0.0474721C18.5974 0.486161 14.6078 1.88498 11.2225 4.15286C7.91172 6.36284 5.32102 9.11084 3.3097 12.5127C1.80328 15.0785 0.702437 18.199 0.230644 21.278C-0.0176665 22.8341 -0.0756054 26.0125 0.106489 27.5603C0.172705 28.1728 0.255475 28.7439 0.288584 28.8184C0.338246 28.9508 2.0102 28.9591 25.1941 28.9591H50.0418L50.1411 28.2556C50.5218 25.5324 50.3811 22.3624 49.7686 19.6226C48.7258 14.9544 46.4247 10.7662 43.0642 7.40573C38.9588 3.3086 33.6616 0.751016 27.9587 0.1137C26.9572 0.00609402 23.7705 -0.0435481 22.918 0.0474721ZM26.6426 8.2252C29.73 8.39898 33.2643 9.80606 35.8715 11.9002C37.767 13.4149 39.2154 15.2027 40.3411 17.4126C40.8543 18.4142 41.4088 19.8544 41.5744 20.6159L41.624 20.8477H25.1528H8.68149L8.73113 20.6159C8.99598 19.3909 10.0389 17.0568 10.9163 15.7573C13.4573 11.9581 17.3475 9.35911 21.8006 8.47347C22.8683 8.26658 24.6893 8.10101 25.4011 8.15071C25.608 8.16724 26.1625 8.20035 26.6426 8.2252Z" fill="#BFC5C5"/>
<path d="M37.0306 36.8306C33.604 40.2986 28.7122 42.1361 23.8122 41.7885C21.1884 41.5981 18.8626 40.8863 16.5616 39.5785C15.229 38.8087 14.5172 38.2625 13.2591 37.0374L12.4065 36.2098L12.2244 36.3753C12.1168 36.4746 10.7842 37.6417 9.26122 38.9743C7.73827 40.3069 6.43878 41.4409 6.38914 41.4905C6.18219 41.6809 8.21007 43.6591 9.97309 45C10.9829 45.7615 12.4562 46.6802 13.6398 47.2844C17.6045 49.304 21.8258 50.1897 26.3368 49.9663C32.47 49.6601 38.3715 47.0278 42.808 42.6079C43.3377 42.0699 43.7764 41.6064 43.7764 41.565C43.7764 41.507 37.8666 36.2346 37.7425 36.1767C37.7176 36.1684 37.3948 36.4581 37.0306 36.8306Z" fill="#BFC5C5"/>
<line x1="57.8826" y1="45.6989" x2="66.4888" y2="3.69889" stroke="#BFC5C5" stroke-width="3"/>
<path d="M78.6177 36H90.1407V32.895H82.1827V28.962H89.6807V25.857H82.1827V21.97H90.1407V18.865H78.6177V36ZM93.4267 36H97.5207L101.04 30.664L104.513 36H108.607L103.018 27.421L108.607 18.865H104.513L101.017 24.201L97.5207 18.865H93.4267L99.0387 27.421L93.4267 36ZM120.345 36.276C124.048 36.276 126.785 34.229 127.682 31.699L124.531 30.181C123.933 31.837 122.415 33.056 120.345 33.056C117.309 33.056 115.262 30.779 115.262 27.421C115.262 24.086 117.309 21.809 120.345 21.809C122.415 21.809 123.933 23.028 124.531 24.684L127.682 23.166C126.785 20.636 124.048 18.589 120.345 18.589C115.377 18.589 111.697 22.315 111.697 27.421C111.697 32.504 115.423 36.276 120.345 36.276ZM132.5 36H143.31V32.895H136.065V18.865H132.5V36ZM153.967 36.276C158.015 36.276 160.982 33.493 160.982 29.721V18.865H157.417V29.491C157.417 31.538 155.968 33.056 153.967 33.056C151.966 33.056 150.517 31.538 150.517 29.491V18.865H146.952V29.721C146.952 33.493 149.919 36.276 153.967 36.276ZM172.565 36.276C176.176 36.276 178.683 34.16 178.683 31.147C178.683 28.847 177.326 27.26 174.566 26.363L171.277 25.305C170.242 24.96 169.713 24.362 169.713 23.557C169.713 22.453 170.679 21.694 172.128 21.694C173.784 21.694 175.141 22.66 175.785 24.247L178.683 22.936C177.717 20.245 175.21 18.589 172.128 18.589C168.609 18.589 166.194 20.682 166.194 23.695C166.194 25.995 167.574 27.651 170.311 28.548L173.669 29.652C174.704 29.997 175.187 30.549 175.187 31.354C175.187 32.458 174.244 33.171 172.795 33.171C170.955 33.171 169.345 32.044 168.494 30.158L165.573 31.469C166.562 34.436 169.322 36.276 172.565 36.276ZM183.754 36H187.319V18.865H183.754V36ZM197.487 36H201.627L207.492 18.865H203.582L199.557 31.4L195.532 18.865H191.622L197.487 36ZM211.791 36H223.314V32.895H215.356V28.962H222.854V25.857H215.356V21.97H223.314V18.865H211.791V36Z" fill="#BFC5C5"/>
</svg>
